# xmcd
#
# Track frame offsets: 
#        150
#        21960
#        42837
#        65505
#        87142
#        102200
#        123345
#        155120
#        161235
#        174409
#        190255
#        207872
#        228170
#        240137
#        258760
#        273755
#        289422
#        311812
#
# Disc length: 4399 seconds
#
# Revision: 0
# Processed by: cddbd v1.5.2PL0 Copyright (c) Steve Scherf et al.
# Submitted via: ExactAudioCopy v0.99pb5
#
DISCID=f1112d12
DTITLE=I Fiò dla nebia - quartiere
DYEAR=1900
DGENRE=Country
TTITLE0=Chi l'è li lu
TTITLE1=I don
TTITLE2=Oh yahh!
TTITLE3=Quartiere
TTITLE4=Scarnebia
TTITLE5=Fancis
TTITLE6=La burela
TTITLE7=Epilogo dla burela
TTITLE8=Nadal a Pavia
TTITLE9=Varadero beach
TTITLE10=Corsino Park
TTITLE11=Al Pavia in serie A
TTITLE12=Al giurament
TTITLE13=Sta su da dos
TTITLE14=Dai movat ... disbroiat
TTITLE15=Ma che du ...
TTITLE16=Quand fa cald a Pavia
TTITLE17=L'ultim di 'd fera
EXTD=
EXTT0=
EXTT1=
EXTT2=
EXTT3=
EXTT4=
EXTT5=
EXTT6=
EXTT7=
EXTT8=
EXTT9=
EXTT10=
EXTT11=
EXTT12=
EXTT13=
EXTT14=
EXTT15=
EXTT16=
EXTT17=
PLAYORDER=
